<svg width="20" height="16" viewBox="0 0 20 16" fill="none" xmlns="http://www.w3.org/2000/svg">
<path d="M2 16C1.45 16 0.979333 15.8043 0.588 15.413C0.196 15.021 0 14.55 0 14V2C0 1.45 0.196 0.979333 0.588 0.588C0.979333 0.196 1.45 0 2 0H7.175C7.44167 0 7.696 0.0500001 7.938 0.15C8.17933 0.25 8.39167 0.391666 8.575 0.575L10 2H18C18.55 2 19.021 2.196 19.413 2.588C19.8043 2.97933 20 3.45 20 4V14C20 14.55 19.8043 15.021 19.413 15.413C19.021 15.8043 18.55 16 18 16H2ZM2 2V14H18V4H9.175L7.175 2H2Z" fill="white"/>
</svg>
