<svg width="26" height="26" viewBox="0 0 26 26" fill="none" xmlns="http://www.w3.org/2000/svg">
<path d="M23.1464 19.107C22.333 18.2928 21.3824 17.6284 20.3385 17.144C21.8107 15.9513 22.7499 14.1313 22.7499 12.0904C22.7499 8.48951 19.747 5.53535 16.146 5.5906C12.6003 5.64585 9.74352 8.53501 9.74352 12.0904C9.74352 14.1313 10.686 15.9513 12.155 17.144C11.1108 17.628 10.1602 18.2925 9.34702 19.107C7.57253 20.8847 6.56504 23.2311 6.50004 25.7335C6.49917 25.7682 6.50526 25.8027 6.51794 25.835C6.53061 25.8673 6.54963 25.8967 6.57386 25.9216C6.59809 25.9464 6.62704 25.9661 6.65902 25.9796C6.69099 25.9931 6.72534 26 6.76004 26H8.58003C8.71978 26 8.83678 25.8895 8.84003 25.7498C8.90178 23.8648 9.66552 22.1001 11.0078 20.7612C11.6946 20.0707 12.5116 19.5233 13.4114 19.1506C14.3112 18.778 15.276 18.5875 16.25 18.5902C18.2292 18.5902 20.0915 19.3604 21.4922 20.7612C22.8312 22.1001 23.5949 23.8648 23.6599 25.7498C23.6632 25.8895 23.7802 26 23.9199 26H25.7399C25.7746 26 25.809 25.9931 25.8409 25.9796C25.8729 25.9661 25.9019 25.9464 25.9261 25.9216C25.9503 25.8967 25.9693 25.8673 25.982 25.835C25.9947 25.8027 26.0008 25.7682 25.9999 25.7335C25.9349 23.2311 24.9274 20.8847 23.1464 19.107ZM16.25 16.2503C15.1385 16.2503 14.092 15.818 13.3087 15.0316C12.9157 14.6416 12.6052 14.1765 12.3958 13.6639C12.1864 13.1513 12.0824 12.6018 12.09 12.0482C12.0998 10.9822 12.5255 9.95197 13.2697 9.18824C14.0497 8.38877 15.093 7.94353 16.2077 7.93053C17.3095 7.92078 18.3787 8.34977 19.1652 9.12C19.9712 9.90972 20.4132 10.9659 20.4132 12.0904C20.4132 13.2019 19.981 14.2451 19.1945 15.0316C18.8086 15.4193 18.3497 15.7266 17.8443 15.9358C17.3389 16.145 16.797 16.2519 16.25 16.2503ZM8.10878 12.9484C8.07953 12.6656 8.06328 12.3797 8.06328 12.0904C8.06328 11.5737 8.11203 11.0699 8.20303 10.5792C8.22578 10.4622 8.16403 10.342 8.05678 10.2932C7.61478 10.095 7.20854 9.82198 6.85754 9.47749C6.44395 9.07647 6.11849 8.59365 5.90193 8.05982C5.68537 7.526 5.58247 6.95289 5.5998 6.37708C5.62905 5.33386 6.04829 4.34264 6.77954 3.59516C7.58228 2.77293 8.66128 2.32444 9.80852 2.33744C10.8453 2.34719 11.8463 2.74693 12.6035 3.45541C12.8603 3.6959 13.0813 3.9624 13.2665 4.24839C13.3315 4.34914 13.4582 4.39138 13.5687 4.35239C14.1407 4.15414 14.7452 4.01439 15.366 3.9494C15.548 3.9299 15.652 3.7349 15.5707 3.57241C14.5145 1.48272 12.3565 0.0397614 9.86052 0.000762549C6.25629 -0.0544858 3.25331 2.89968 3.25331 6.49732C3.25331 8.53826 4.19255 10.3582 5.6648 11.5509C4.6313 12.0287 3.67906 12.6884 2.85356 13.5139C1.07257 15.2916 0.0650809 17.638 8.1269e-05 20.1437C-0.000786167 20.1784 0.00529788 20.2129 0.0179751 20.2452C0.0306523 20.2775 0.0496661 20.3069 0.0738961 20.3317C0.0981261 20.3566 0.127082 20.3763 0.159058 20.3898C0.191034 20.4032 0.225382 20.4102 0.26008 20.4102H2.08332C2.22307 20.4102 2.34007 20.2997 2.34332 20.1599C2.40507 18.275 3.16881 16.5103 4.51105 15.1713C5.46655 14.2158 6.63654 13.5529 7.91378 13.2311C8.04053 13.1986 8.12503 13.0784 8.10878 12.9484Z" fill="white"/>
</svg>
