<svg width="141" height="141" viewBox="0 0 141 141" fill="none" xmlns="http://www.w3.org/2000/svg">
<g clip-path="url(#clip0_1_19)">
<path d="M59.7598 100.586C62.7432 102.101 65.4282 103.96 67.8149 106.163C70.2017 108.366 72.2671 110.845 74.0112 113.599C75.7554 116.353 77.0635 119.29 77.9355 122.411C78.8076 125.532 79.2666 128.791 79.3125 132.188H70.5C70.5 128.562 69.8115 125.142 68.4346 121.929C67.0576 118.716 65.1758 115.917 62.7891 113.53C60.4023 111.143 57.5796 109.238 54.3208 107.815C51.062 106.393 47.6426 105.704 44.0625 105.75C40.3906 105.75 36.9712 106.438 33.8042 107.815C30.6372 109.192 27.8374 111.074 25.4048 113.461C22.9722 115.848 21.0674 118.67 19.6904 121.929C18.3135 125.188 17.625 128.607 17.625 132.188H8.8125C8.8125 128.837 9.27148 125.601 10.1895 122.48C11.1074 119.359 12.4155 116.421 14.1138 113.667C15.812 110.914 17.8545 108.435 20.2412 106.232C22.6279 104.029 25.3359 102.147 28.3652 100.586C24.9688 98.062 22.3296 94.9409 20.4478 91.2231C18.5659 87.5054 17.625 83.5352 17.625 79.3125C17.625 75.6865 18.3135 72.2671 19.6904 69.0542C21.0674 65.8413 22.9492 63.0415 25.3359 60.6548C27.7227 58.2681 30.5225 56.3633 33.7354 54.9404C36.9482 53.5176 40.3906 52.8291 44.0625 52.875C48.2852 52.875 52.2554 53.8159 55.9731 55.6978C59.6909 57.5796 62.812 60.2188 65.3364 63.6152C67.0806 60.1729 69.3066 57.0977 72.0146 54.3896C74.7227 51.6816 77.7979 49.4556 81.2402 47.7114C77.8438 45.187 75.2046 42.0659 73.3228 38.3481C71.4409 34.6304 70.5 30.6602 70.5 26.4375C70.5 22.8115 71.1885 19.3921 72.5654 16.1792C73.9424 12.9663 75.8242 10.1665 78.2109 7.77979C80.5977 5.39307 83.3975 3.48828 86.6104 2.06543C89.8232 0.642578 93.2656 -0.0458984 96.9375 0C100.563 0 103.983 0.688477 107.196 2.06543C110.409 3.44238 113.208 5.32422 115.595 7.71094C117.982 10.0977 119.887 12.9204 121.31 16.1792C122.732 19.438 123.421 22.8574 123.375 26.4375C123.375 30.6602 122.434 34.6304 120.552 38.3481C118.67 42.0659 116.031 45.187 112.635 47.7114C115.618 49.2261 118.303 51.085 120.69 53.2881C123.077 55.4912 125.142 57.9697 126.886 60.7236C128.63 63.4775 129.938 66.415 130.811 69.5361C131.683 72.6572 132.142 75.916 132.188 79.3125H123.375C123.375 75.6865 122.687 72.2671 121.31 69.0542C119.933 65.8413 118.051 63.0415 115.664 60.6548C113.277 58.2681 110.455 56.3633 107.196 54.9404C103.937 53.5176 100.518 52.8291 96.9375 52.875C93.2656 52.875 89.8462 53.5635 86.6792 54.9404C83.5122 56.3174 80.7124 58.1992 78.2798 60.5859C75.8472 62.9727 73.9424 65.7954 72.5654 69.0542C71.1885 72.313 70.5 75.7324 70.5 79.3125C70.5 83.5352 69.5591 87.5054 67.6772 91.2231C65.7954 94.9409 63.1562 98.062 59.7598 100.586ZM79.3125 26.4375C79.3125 28.8701 79.7715 31.1421 80.6895 33.2534C81.6074 35.3647 82.8696 37.2466 84.4761 38.8989C86.0825 40.5513 87.9414 41.8135 90.0527 42.6855C92.1641 43.5576 94.459 44.0166 96.9375 44.0625C99.3701 44.0625 101.642 43.6035 103.753 42.6855C105.865 41.7676 107.747 40.5054 109.399 38.8989C111.051 37.2925 112.313 35.4336 113.186 33.3223C114.058 31.2109 114.517 28.916 114.562 26.4375C114.562 24.0049 114.104 21.7329 113.186 19.6216C112.268 17.5103 111.005 15.6284 109.399 13.9761C107.792 12.3237 105.934 11.0615 103.822 10.1895C101.711 9.31738 99.416 8.8584 96.9375 8.8125C94.5049 8.8125 92.2329 9.27148 90.1216 10.1895C88.0103 11.1074 86.1284 12.3696 84.4761 13.9761C82.8237 15.5825 81.5615 17.4414 80.6895 19.5527C79.8174 21.6641 79.3584 23.959 79.3125 26.4375ZM26.4375 79.3125C26.4375 81.7451 26.8965 84.0171 27.8145 86.1284C28.7324 88.2397 29.9946 90.1216 31.6011 91.7739C33.2075 93.4263 35.0664 94.6885 37.1777 95.5605C39.2891 96.4326 41.584 96.8916 44.0625 96.9375C46.4951 96.9375 48.7671 96.4785 50.8784 95.5605C52.9897 94.6426 54.8716 93.3804 56.5239 91.7739C58.1763 90.1675 59.4385 88.3086 60.3105 86.1973C61.1826 84.0859 61.6416 81.791 61.6875 79.3125C61.6875 76.8799 61.2285 74.6079 60.3105 72.4966C59.3926 70.3853 58.1304 68.5034 56.5239 66.8511C54.9175 65.1987 53.0586 63.9365 50.9473 63.0645C48.8359 62.1924 46.541 61.7334 44.0625 61.6875C41.6299 61.6875 39.3579 62.1465 37.2466 63.0645C35.1353 63.9824 33.2534 65.2446 31.6011 66.8511C29.9487 68.4575 28.6865 70.3164 27.8145 72.4277C26.9424 74.5391 26.4834 76.834 26.4375 79.3125ZM129.984 141L110.156 125.509L90.3281 141L98.3145 116.215L79.3125 101.344H103.065L110.156 79.3125L117.248 101.344H141L121.998 116.215L129.984 141Z" fill="white"/>
</g>
<defs>
<clipPath id="clip0_1_19">
<rect width="141" height="141" fill="white"/>
</clipPath>
</defs>
</svg>
